<svg xmlns="http://www.w3.org/2000/svg" xmlns:xlink="http://www.w3.org/1999/xlink" width="500" zoomAndPan="magnify" viewBox="0 0 375 374.999991" height="500" preserveAspectRatio="xMidYMid meet" version="1.0"><defs><g/><clipPath id="8ba00964df"><path d="M 53.113281 32.507812 L 218 32.507812 L 218 236 L 53.113281 236 Z M 53.113281 32.507812 " clip-rule="nonzero"/></clipPath><clipPath id="4b9ebb217b"><path d="M 179 38 L 321.613281 38 L 321.613281 230 L 179 230 Z M 179 38 " clip-rule="nonzero"/></clipPath></defs><rect x="-37.5" width="450" fill="#ffffff" y="-37.499999" height="449.999989" fill-opacity="1"/><rect x="-37.5" width="450" fill="#ffffff" y="-37.499999" height="449.999989" fill-opacity="1"/><g clip-path="url(#8ba00964df)"><path fill="#5271ff" d="M 202.675781 166.484375 L 179.960938 145.03125 C 179.960938 145.03125 195.792969 105.679688 202.675781 93.363281 C 205.621094 88.097656 209.140625 81.152344 211.167969 73.472656 C 211.347656 73.507812 211.535156 73.523438 211.722656 73.523438 C 214.6875 73.523438 217.089844 69.210938 217.089844 63.894531 C 217.089844 59.898438 215.734375 56.46875 213.800781 55.011719 C 213.800781 55.011719 211.113281 56.988281 210.9375 60.875 C 210.9375 60.875 210.195312 56.648438 213.574219 53.019531 C 213.003906 48.761719 211.96875 46.261719 209.421875 43.1875 C 204.90625 37.734375 197.992188 35.910156 187.496094 35.433594 C 177.65625 34.980469 170.5625 33.8125 162.230469 32.90625 C 159.363281 32.59375 160.589844 38.105469 161.359375 39.4375 C 162.910156 42.125 165.109375 43.015625 172.949219 45.316406 C 172.949219 45.316406 166.671875 45.3125 160.261719 41.707031 C 158.804688 44.332031 158.003906 47.78125 157.726562 51.695312 C 162.863281 57 161.761719 63.296875 161.761719 63.296875 C 161.507812 57.675781 157.617188 54.808594 157.617188 54.808594 C 155.527344 56.128906 154.03125 59.695312 154.03125 63.894531 C 154.03125 69.210938 156.433594 73.523438 159.398438 73.523438 C 159.683594 73.523438 159.960938 73.480469 160.234375 73.40625 C 162.550781 82.214844 166.1875 90.46875 170.242188 95.355469 C 168.09375 97.429688 166.042969 99.414062 164.132812 100.898438 C 176.183594 100.34375 185.558594 108.679688 185.558594 108.679688 C 185.558594 108.679688 168.882812 98.539062 155.96875 105.996094 C 138.070312 116.332031 118.660156 108.679688 118.660156 108.679688 C 118.660156 108.679688 136.195312 111.835938 154.773438 103.207031 C 155.171875 103.023438 155.570312 102.851562 155.964844 102.695312 C 146.234375 98.945312 137.207031 93.320312 113.703125 104.722656 C 113.703125 104.722656 107.609375 107.285156 104.121094 112.683594 C 104.121094 112.683594 105.074219 107.761719 110.394531 103.335938 C 105.730469 101.683594 96.949219 99.683594 89.390625 104.273438 C 89.390625 104.273438 83.296875 106.835938 79.808594 112.238281 C 79.808594 112.238281 82.457031 105.671875 89.863281 100.894531 C 90.976562 94.214844 94.441406 79.179688 103.957031 69.953125 C 104.402344 69.519531 104.804688 69.144531 105.191406 68.816406 C 102.128906 69.386719 99.660156 70.601562 99.660156 70.601562 C 104.617188 66.003906 109.0625 67.855469 112.296875 67.574219 C 116.132812 67.246094 120.726562 69.199219 123.070312 68.859375 C 126.210938 68.402344 131.148438 67.855469 132.371094 67.179688 C 135.75 65.292969 133.433594 61.425781 130.773438 61.304688 C 127.3125 61.144531 137.152344 61.410156 136.882812 57.429688 C 136.460938 51.273438 137.152344 49.316406 135.339844 46.894531 C 134.523438 45.808594 126.222656 38.269531 123.683594 38.277344 C 116.792969 38.292969 106.285156 44.726562 100.640625 47.269531 C 95.867188 49.421875 93.675781 53.753906 91.570312 57.1875 C 87.550781 63.742188 53.117188 106.613281 53.46875 119.601562 C 53.851562 133.71875 81.773438 148.265625 110.074219 138.832031 C 110.074219 138.832031 116.800781 135.710938 120.550781 132.925781 C 120.550781 132.925781 116.507812 137.613281 111.53125 140.710938 C 113.125 142.738281 115.027344 145.371094 117.136719 148.425781 C 123.859375 156.855469 136.253906 170.03125 152.246094 176.574219 C 152.246094 176.574219 143.671875 175.503906 131.792969 170.765625 C 134.46875 174.960938 137.164062 179.214844 139.765625 183.320312 C 142.960938 188.363281 147.09375 192.757812 151.980469 196.195312 C 156.160156 199.136719 160.746094 201.78125 165.671875 203.796875 C 165.671875 203.796875 159.496094 203.027344 150.367188 199.898438 C 153.136719 204.152344 155.464844 207.605469 157.09375 209.761719 C 161.113281 215.101562 167.707031 220.089844 165.929688 235.804688 L 202.675781 166.484375 " fill-opacity="1" fill-rule="nonzero"/></g><g clip-path="url(#4b9ebb217b)"><path fill="#322f30" d="M 283.425781 57.1875 C 281.320312 53.753906 279.125 49.421875 274.355469 47.269531 C 268.710938 44.726562 258.203125 38.292969 251.316406 38.277344 C 248.773438 38.269531 240.46875 45.808594 239.65625 46.894531 C 237.84375 49.316406 238.535156 51.273438 238.113281 57.429688 C 237.84375 61.410156 247.679688 61.144531 244.21875 61.304688 C 241.558594 61.425781 239.246094 65.292969 242.625 67.179688 C 243.847656 67.855469 248.785156 68.402344 251.921875 68.859375 C 254.269531 69.199219 258.863281 67.246094 262.699219 67.574219 C 265.933594 67.855469 270.378906 66.003906 275.335938 70.601562 C 275.335938 70.601562 272.863281 69.386719 269.804688 68.816406 C 270.1875 69.144531 270.59375 69.519531 271.039062 69.953125 C 280.554688 79.179688 284.015625 94.214844 285.132812 100.894531 C 292.535156 105.671875 295.183594 112.238281 295.183594 112.238281 C 291.699219 106.835938 285.601562 104.273438 285.601562 104.273438 C 278.046875 99.683594 269.265625 101.683594 264.601562 103.335938 C 269.917969 107.761719 270.871094 112.683594 270.871094 112.683594 C 267.386719 107.285156 261.289062 104.722656 261.289062 104.722656 C 250.792969 99.628906 243.183594 97.929688 237.105469 97.949219 L 232.421875 106.238281 C 247.785156 110.992188 260.644531 108.679688 260.644531 108.679688 C 260.644531 108.679688 246.175781 114.382812 230.699219 109.289062 L 211.929688 142.507812 L 231.703125 161.4375 L 179.046875 221.140625 C 179.046875 221.140625 218.210938 238.714844 245.050781 222.101562 C 227.03125 205.609375 225.246094 197.484375 227.796875 188.355469 C 231.257812 175.980469 252.464844 143.261719 252.464844 143.261719 C 280.769531 152.695312 321.144531 133.71875 321.527344 119.601562 C 321.875 106.613281 287.441406 63.742188 283.425781 57.1875 " fill-opacity="1" fill-rule="nonzero"/></g><g fill="#322f30" fill-opacity="1"><g transform="translate(41.812503, 291.132401)"><g><path d="M 26.578125 -33.171875 C 25.285156 -33.140625 24.316406 -33.019531 23.671875 -32.8125 C 23.023438 -32.613281 22.566406 -32.222656 22.296875 -31.640625 C 22.035156 -31.066406 21.90625 -30.15625 21.90625 -28.90625 L 21.90625 -8.484375 C 21.90625 -6.890625 21.472656 -5.390625 20.609375 -3.984375 C 19.753906 -2.585938 18.519531 -1.457031 16.90625 -0.59375 C 15.289062 0.257812 13.390625 0.6875 11.203125 0.6875 C 8.921875 0.6875 7.019531 0.316406 5.5 -0.421875 C 3.976562 -1.160156 2.863281 -2.066406 2.15625 -3.140625 C 1.445312 -4.222656 1.09375 -5.273438 1.09375 -6.296875 C 1.09375 -7.421875 1.4375 -8.328125 2.125 -9.015625 C 2.820312 -9.710938 3.703125 -10.0625 4.765625 -10.0625 C 5.722656 -10.0625 6.539062 -9.738281 7.21875 -9.09375 C 7.894531 -8.445312 8.234375 -7.664062 8.234375 -6.75 C 8.234375 -6.25 8.140625 -5.804688 7.953125 -5.421875 C 7.773438 -5.046875 7.519531 -4.59375 7.1875 -4.0625 C 6.820312 -3.53125 6.640625 -3.148438 6.640625 -2.921875 C 6.640625 -2.429688 6.960938 -1.992188 7.609375 -1.609375 C 8.253906 -1.234375 9.054688 -1.046875 10.015625 -1.046875 C 11.273438 -1.046875 12.25 -1.425781 12.9375 -2.1875 C 13.632812 -2.945312 13.984375 -4.285156 13.984375 -6.203125 L 13.984375 -28.859375 C 13.984375 -30.210938 13.804688 -31.1875 13.453125 -31.78125 C 13.109375 -32.375 12.601562 -32.742188 11.9375 -32.890625 C 11.28125 -33.046875 10.242188 -33.140625 8.828125 -33.171875 L 8.828125 -34.0625 L 26.578125 -34.0625 Z M 26.578125 -33.171875 "/></g></g></g><g fill="#322f30" fill-opacity="1"><g transform="translate(71.65167, 291.132401)"><g><path d="M 20.328125 -34.796875 C 23.660156 -34.796875 26.734375 -34.085938 29.546875 -32.671875 C 32.359375 -31.253906 34.585938 -29.1875 36.234375 -26.46875 C 37.890625 -23.757812 38.71875 -20.570312 38.71875 -16.90625 C 38.71875 -13.632812 37.972656 -10.660156 36.484375 -7.984375 C 35.003906 -5.304688 32.875 -3.191406 30.09375 -1.640625 C 27.3125 -0.0859375 24.070312 0.6875 20.375 0.6875 C 16.800781 0.6875 13.625 -0.0625 10.84375 -1.5625 C 8.070312 -3.0625 5.910156 -5.148438 4.359375 -7.828125 C 2.804688 -10.503906 2.03125 -13.582031 2.03125 -17.0625 C 2.03125 -20.457031 2.816406 -23.503906 4.390625 -26.203125 C 5.960938 -28.898438 8.132812 -31.003906 10.90625 -32.515625 C 13.6875 -34.035156 16.828125 -34.796875 20.328125 -34.796875 Z M 10.859375 -17.15625 C 10.859375 -14.507812 11.179688 -11.960938 11.828125 -9.515625 C 12.472656 -7.066406 13.492188 -5.039062 14.890625 -3.4375 C 16.296875 -1.84375 18.109375 -1.046875 20.328125 -1.046875 C 22.242188 -1.046875 23.921875 -1.679688 25.359375 -2.953125 C 26.796875 -4.222656 27.910156 -6.039062 28.703125 -8.40625 C 29.492188 -10.769531 29.890625 -13.535156 29.890625 -16.703125 C 29.890625 -20.140625 29.5 -23.085938 28.71875 -25.546875 C 27.945312 -28.015625 26.84375 -29.882812 25.40625 -31.15625 C 23.96875 -32.425781 22.289062 -33.0625 20.375 -33.0625 C 18.625 -33.0625 17.03125 -32.472656 15.59375 -31.296875 C 14.15625 -30.128906 13.003906 -28.347656 12.140625 -25.953125 C 11.285156 -23.554688 10.859375 -20.625 10.859375 -17.15625 Z M 10.859375 -17.15625 "/></g></g></g><g fill="#322f30" fill-opacity="1"><g transform="translate(114.923006, 291.132401)"><g><path d="M 16.515625 -33.171875 C 15.285156 -33.171875 14.4375 -33.050781 13.96875 -32.8125 C 13.507812 -32.582031 13.28125 -32.207031 13.28125 -31.6875 C 13.28125 -31.21875 13.5 -30.554688 13.9375 -29.703125 L 21.375 -15.8125 L 27.671875 -27.859375 C 28.359375 -29.210938 28.703125 -30.253906 28.703125 -30.984375 C 28.703125 -31.804688 28.351562 -32.375 27.65625 -32.6875 C 26.96875 -33.007812 26.03125 -33.171875 24.84375 -33.171875 L 24.84375 -34.0625 L 34.953125 -34.0625 L 34.953125 -33.171875 C 34.328125 -33.171875 33.773438 -33.046875 33.296875 -32.796875 C 32.816406 -32.546875 32.300781 -32.046875 31.75 -31.296875 C 31.207031 -30.554688 30.539062 -29.445312 29.75 -27.96875 L 22.453125 -14.03125 L 22.453125 -5.109375 C 22.453125 -3.785156 22.597656 -2.84375 22.890625 -2.28125 C 23.191406 -1.71875 23.671875 -1.351562 24.328125 -1.1875 C 24.992188 -1.019531 26.125 -0.921875 27.71875 -0.890625 L 27.71875 0 L 9.265625 0 L 9.265625 -0.890625 C 10.691406 -0.921875 11.765625 -1.050781 12.484375 -1.28125 C 13.210938 -1.519531 13.734375 -1.925781 14.046875 -2.5 C 14.367188 -3.082031 14.53125 -3.96875 14.53125 -5.15625 L 14.53125 -12.640625 L 5.84375 -28.65625 C 5.15625 -29.945312 4.585938 -30.890625 4.140625 -31.484375 C 3.691406 -32.078125 3.210938 -32.503906 2.703125 -32.765625 C 2.191406 -33.035156 1.519531 -33.171875 0.6875 -33.171875 L 0.6875 -34.0625 L 16.515625 -34.0625 Z M 16.515625 -33.171875 "/></g></g></g><g fill="#322f30" fill-opacity="1"><g transform="translate(153.039568, 291.132401)"><g><path d="M 17.75 -33.171875 C 16.53125 -33.140625 15.585938 -32.988281 14.921875 -32.71875 C 14.265625 -32.457031 13.8125 -32.03125 13.5625 -31.4375 C 13.3125 -30.84375 13.1875 -30 13.1875 -28.90625 L 13.1875 -19.03125 L 27.5625 -19.03125 L 27.5625 -28.859375 C 27.5625 -30.078125 27.421875 -30.988281 27.140625 -31.59375 C 26.859375 -32.207031 26.410156 -32.613281 25.796875 -32.8125 C 25.191406 -33.019531 24.3125 -33.140625 23.15625 -33.171875 L 23.15625 -34.0625 L 40.3125 -34.0625 L 40.3125 -33.171875 C 38.957031 -33.140625 37.945312 -33.015625 37.28125 -32.796875 C 36.625 -32.578125 36.160156 -32.171875 35.890625 -31.578125 C 35.628906 -30.984375 35.5 -30.09375 35.5 -28.90625 L 35.5 -5.203125 C 35.5 -3.953125 35.65625 -3.019531 35.96875 -2.40625 C 36.28125 -1.789062 36.734375 -1.390625 37.328125 -1.203125 C 37.921875 -1.023438 38.78125 -0.921875 39.90625 -0.890625 L 39.90625 0 L 23.15625 0 L 23.15625 -0.890625 C 24.375 -0.921875 25.289062 -1.035156 25.90625 -1.234375 C 26.519531 -1.429688 26.945312 -1.828125 27.1875 -2.421875 C 27.4375 -3.023438 27.5625 -3.921875 27.5625 -5.109375 L 27.5625 -16.90625 L 13.1875 -16.90625 L 13.1875 -5.15625 C 13.1875 -3.894531 13.34375 -2.96875 13.65625 -2.375 C 13.96875 -1.78125 14.429688 -1.390625 15.046875 -1.203125 C 15.660156 -1.023438 16.5625 -0.921875 17.75 -0.890625 L 17.75 0 L 1.4375 0 L 1.4375 -0.890625 C 2.894531 -0.890625 3.894531 -1.210938 4.4375 -1.859375 C 4.976562 -2.503906 5.25 -3.617188 5.25 -5.203125 L 5.25 -28.859375 C 5.25 -30.078125 5.109375 -30.984375 4.828125 -31.578125 C 4.546875 -32.171875 4.070312 -32.578125 3.40625 -32.796875 C 2.75 -33.015625 1.78125 -33.140625 0.5 -33.171875 L 0.5 -34.0625 L 17.75 -34.0625 Z M 17.75 -33.171875 "/></g></g></g><g fill="#322f30" fill-opacity="1"><g transform="translate(196.310905, 291.132401)"><g><path d="M 6.296875 -6.796875 L 17.796875 -34.609375 L 18.296875 -34.609375 L 29.75 -6.6875 C 30.507812 -4.800781 31.257812 -3.363281 32 -2.375 C 32.75 -1.382812 33.71875 -0.890625 34.90625 -0.890625 L 34.90625 0 L 18.984375 0 L 18.984375 -0.890625 C 20.578125 -0.921875 21.632812 -1.046875 22.15625 -1.265625 C 22.6875 -1.484375 22.953125 -1.972656 22.953125 -2.734375 C 22.953125 -2.960938 22.894531 -3.222656 22.78125 -3.515625 C 22.664062 -3.816406 22.578125 -4.066406 22.515625 -4.265625 L 20.375 -9.625 L 9.46875 -9.625 L 7.9375 -5.90625 C 7.46875 -4.976562 7.234375 -4.164062 7.234375 -3.46875 C 7.234375 -2.445312 7.613281 -1.757812 8.375 -1.40625 C 9.132812 -1.0625 10.207031 -0.890625 11.59375 -0.890625 L 11.59375 0 L 0.6875 0 L 0.6875 -0.890625 C 1.8125 -0.992188 2.820312 -1.503906 3.71875 -2.421875 C 4.613281 -3.347656 5.472656 -4.804688 6.296875 -6.796875 Z M 19.640625 -11.453125 L 14.921875 -22.859375 L 10.21875 -11.453125 Z M 19.640625 -11.453125 "/></g></g></g><g fill="#322f30" fill-opacity="1"><g transform="translate(234.427467, 291.132401)"><g><path d="M 16.015625 -33.171875 C 14.785156 -33.171875 13.921875 -33.035156 13.421875 -32.765625 C 12.929688 -32.503906 12.6875 -32.0625 12.6875 -31.4375 C 12.6875 -30.9375 12.820312 -30.359375 13.09375 -29.703125 L 20.671875 -10.65625 L 27.5625 -27.5625 C 28.125 -28.988281 28.40625 -29.984375 28.40625 -30.546875 C 28.40625 -31.335938 28.109375 -31.972656 27.515625 -32.453125 C 26.921875 -32.929688 25.960938 -33.171875 24.640625 -33.171875 L 24.640625 -34.0625 L 34.859375 -34.0625 L 34.859375 -33.171875 C 33.628906 -33.171875 32.550781 -32.53125 31.625 -31.25 C 30.707031 -29.976562 29.785156 -28.203125 28.859375 -25.921875 L 17.953125 0.6875 L 17.0625 0.6875 L 5 -29.40625 C 4.445312 -30.851562 3.90625 -31.84375 3.375 -32.375 C 2.84375 -32.90625 2 -33.171875 0.84375 -33.171875 L 0.84375 -34.0625 L 16.015625 -34.0625 Z M 16.015625 -33.171875 "/></g></g></g><g fill="#322f30" fill-opacity="1"><g transform="translate(272.54403, 291.132401)"><g><path d="M 29.59375 -24.34375 L 28.703125 -24.34375 C 28.242188 -26.914062 27.316406 -28.867188 25.921875 -30.203125 C 24.535156 -31.546875 22.71875 -32.21875 20.46875 -32.21875 L 13.78125 -32.21875 L 13.78125 -18.296875 L 14.828125 -18.296875 C 16.078125 -18.296875 17.109375 -18.492188 17.921875 -18.890625 C 18.734375 -19.285156 19.421875 -20.050781 19.984375 -21.1875 C 20.546875 -22.332031 20.957031 -23.960938 21.21875 -26.078125 L 22.109375 -26.078125 L 22.109375 -8.78125 L 21.21875 -8.78125 C 20.851562 -11.78125 20.148438 -13.804688 19.109375 -14.859375 C 18.066406 -15.921875 16.703125 -16.453125 15.015625 -16.453125 L 13.78125 -16.453125 L 13.78125 -5.5 C 13.78125 -4.082031 13.992188 -3.113281 14.421875 -2.59375 C 14.859375 -2.082031 15.6875 -1.828125 16.90625 -1.828125 L 20.46875 -1.828125 C 23.382812 -1.828125 25.664062 -2.613281 27.3125 -4.1875 C 28.96875 -5.757812 30.222656 -7.867188 31.078125 -10.515625 L 31.984375 -10.515625 L 30.4375 0 L 0.890625 0 L 0.890625 -0.890625 L 2.03125 -0.890625 C 3.1875 -0.890625 4.035156 -1.0625 4.578125 -1.40625 C 5.128906 -1.757812 5.476562 -2.21875 5.625 -2.78125 C 5.769531 -3.34375 5.84375 -4.101562 5.84375 -5.0625 L 5.84375 -29.109375 C 5.84375 -30.722656 5.472656 -31.796875 4.734375 -32.328125 C 3.992188 -32.859375 2.710938 -33.140625 0.890625 -33.171875 L 0.890625 -34.0625 L 29.59375 -34.0625 Z M 29.59375 -24.34375 "/></g></g></g><g fill="#322f30" fill-opacity="1"><g transform="translate(308.083195, 291.132401)"><g><path d="M 31.53125 -11.953125 L 31.53125 -28.859375 C 31.53125 -30.410156 31.125 -31.515625 30.3125 -32.171875 C 29.507812 -32.835938 28.210938 -33.171875 26.421875 -33.171875 L 26.421875 -34.0625 L 37.53125 -34.0625 L 37.53125 -33.171875 C 36.070312 -33.171875 34.992188 -32.769531 34.296875 -31.96875 C 33.609375 -31.175781 33.265625 -30.140625 33.265625 -28.859375 L 33.265625 0.5 L 32.421875 0.5 L 7.28125 -27.859375 L 7.28125 -5 C 7.28125 -3.445312 7.691406 -2.375 8.515625 -1.78125 C 9.347656 -1.1875 10.625 -0.890625 12.34375 -0.890625 L 12.6875 -0.890625 L 12.6875 0 L 0.75 0 L 0.75 -0.890625 C 3.945312 -0.890625 5.546875 -2.210938 5.546875 -4.859375 L 5.546875 -29.84375 C 5.347656 -30.039062 4.941406 -30.476562 4.328125 -31.15625 C 3.722656 -31.832031 3.140625 -32.328125 2.578125 -32.640625 C 2.015625 -32.960938 1.40625 -33.140625 0.75 -33.171875 L 0.75 -34.0625 L 12.046875 -34.0625 Z M 31.53125 -11.953125 "/></g></g></g></svg>